# xmcd
#
# Track frame offsets:
#	150
#	16800
#	32109
#	45051
#	60607
#	73936
#	89476
#	104323
#	118571
#	133347
#	148278
#
# Disc length: 2165 seconds
#
# Revision: 1
# Processed by: cddbd v1.5.2PL0 Copyright (c) Steve Scherf et al.
# Submitted via: audiograbber 1.83.01
#
DISCID=9b08730b
DTITLE=Dustin Lynch - Tullahoma
DYEAR=2020
DGENRE=Country
TTITLE0=Momma's House
TTITLE1=Dirt Road
TTITLE2=Thinking 'Bout You (feat. Lauren Alaina)
TTITLE3=Ridin' Roads
TTITLE4=Old Country Song
TTITLE5=The World Ain't Yours and Mine
TTITLE6=Country Star
TTITLE7=Workin' On You
TTITLE8=Little Town Livin'
TTITLE9=Red Dirt, Blue Eyes
TTITLE10=Good Girl
EXTD=
EXTT0=
EXTT1=
EXTT2=
EXTT3=
EXTT4=
EXTT5=
EXTT6=
EXTT7=
EXTT8=
EXTT9=
EXTT10=
PLAYORDER=
